<svg width="34" height="35" viewBox="0 0 34 35" fill="none" xmlns="http://www.w3.org/2000/svg">
<rect y="0.774414" width="34" height="34" rx="5" fill="#F0F1F3"/>
<path opacity="0.4" d="M10.3301 25.1947C10.2201 25.1947 10.1001 25.1647 10.0001 25.1147L7.78011 24.0047C7.53011 23.8747 7.37012 23.6147 7.37012 23.3347V20.5547C7.37012 20.1447 7.71012 19.8047 8.12012 19.8047C8.53012 19.8047 8.87012 20.1447 8.87012 20.5547V22.8647L10.6801 23.7647C11.0501 23.9547 11.2001 24.4047 11.0201 24.7747C10.8701 25.0347 10.6101 25.1947 10.3301 25.1947Z" fill="#BB2734"/>
<path d="M17 28.5241C16.94 28.5241 16.88 28.5141 16.83 28.5041C16.77 28.4941 16.71 28.4641 16.65 28.4341L14.44 27.3341C14.07 27.1441 13.92 26.6941 14.1 26.3241C14.29 25.9541 14.74 25.8041 15.11 25.9841L16.25 26.5541V24.9941C16.25 24.5841 16.59 24.2441 17 24.2441C17.41 24.2441 17.75 24.5841 17.75 24.9941V26.5541L18.89 25.9841C19.26 25.8041 19.71 25.9541 19.9 26.3241C20.09 26.6941 19.94 27.1441 19.56 27.3341L17.35 28.4341C17.29 28.4641 17.23 28.4841 17.17 28.5041C17.11 28.5141 17.06 28.5241 17 28.5241Z" fill="#BB2734"/>
<path opacity="0.4" d="M23.6702 25.1945C23.4002 25.1945 23.1302 25.0445 23.0002 24.7845C22.8102 24.4145 22.9602 23.9645 23.3402 23.7745L25.1502 22.8745V20.5645C25.1502 20.1545 25.4902 19.8145 25.9002 19.8145C26.3102 19.8145 26.6502 20.1545 26.6502 20.5645V23.3445C26.6502 23.6245 26.4902 23.8845 26.2402 24.0145L24.0202 25.1245C23.8902 25.1645 23.7802 25.1945 23.6702 25.1945Z" fill="#BB2734"/>
<path d="M17 20.1945C16.59 20.1945 16.25 19.8545 16.25 19.4445V17.1345L14.44 16.2345C14.07 16.0445 13.92 15.5945 14.1 15.2245C14.29 14.8545 14.74 14.7045 15.11 14.8845L17 15.8245L18.89 14.8845C19.26 14.7045 19.71 14.8445 19.9 15.2245C20.09 15.5945 19.94 16.0445 19.56 16.2345L17.75 17.1345V19.4445C17.75 19.8545 17.41 20.1945 17 20.1945Z" fill="#BB2734"/>
<path opacity="0.4" d="M8.10986 15.7448C7.69986 15.7448 7.35986 15.4048 7.35986 14.9948V12.2348V12.2248C7.35986 12.1648 7.36986 12.1048 7.37986 12.0548C7.39986 11.9748 7.42986 11.9048 7.46986 11.8348C7.49986 11.7848 7.52986 11.7448 7.56986 11.7048C7.60986 11.6648 7.65986 11.6248 7.70986 11.5948C7.72986 11.5848 7.75986 11.5648 7.77986 11.5548L9.98986 10.4548C10.3599 10.2748 10.8099 10.4148 10.9999 10.7948C11.1899 11.1648 11.0399 11.6148 10.6599 11.8048L9.77986 12.2448L10.6599 12.6848C11.0299 12.8748 11.1799 13.3248 10.9999 13.6948C10.8199 14.0648 10.3599 14.2148 9.98986 14.0348L8.84986 13.4648V15.0248C8.85986 15.4148 8.52986 15.7448 8.10986 15.7448Z" fill="#BB2734"/>
<path d="M19.2198 9.63421C19.1098 9.63421 18.9898 9.60421 18.8898 9.55421L16.9998 8.61421L15.1098 9.55421C14.7398 9.74421 14.2898 9.59421 14.0998 9.21421C13.9098 8.84421 14.0598 8.3942 14.4398 8.2042L16.6598 7.09422C16.8698 6.98422 17.1198 6.98422 17.3298 7.09422L19.5498 8.2042C19.9198 8.3942 20.0698 8.84421 19.8898 9.21421C19.7598 9.48421 19.4998 9.63421 19.2198 9.63421Z" fill="#BB2734"/>
<path opacity="0.4" d="M25.8899 15.7447C25.4799 15.7447 25.1399 15.4047 25.1399 14.9947V13.4347L23.9999 14.0047C23.6299 14.1947 23.1799 14.0447 22.9899 13.6647C22.7999 13.2947 22.9499 12.8447 23.3299 12.6547L24.2099 12.2147L23.3299 11.7747C22.9599 11.5847 22.8099 11.1347 22.9899 10.7647C23.1699 10.3947 23.6299 10.2447 23.9999 10.4247L26.2099 11.5247C26.2299 11.5347 26.2599 11.5447 26.2799 11.5647C26.3399 11.5947 26.3899 11.6447 26.4399 11.6947C26.4699 11.7347 26.4999 11.7747 26.5299 11.8147C26.5699 11.8847 26.5999 11.9547 26.6199 12.0347C26.6299 12.0947 26.6399 12.1547 26.6399 12.2047V12.2147V14.9747C26.6399 15.4147 26.2999 15.7447 25.8899 15.7447Z" fill="#BB2734"/>
</svg>
