<svg width="34" height="35" viewBox="0 0 34 35" fill="none" xmlns="http://www.w3.org/2000/svg">
<rect y="0.774414" width="34" height="34" rx="5" fill="#F0F1F3"/>
<path d="M18.4298 20.7749H9.39985C7.57985 20.7749 6.41985 18.8249 7.29985 17.2249L9.62985 12.9848L11.8098 9.01484C12.7198 7.36484 15.0998 7.36484 16.0098 9.01484L18.1998 12.9848L19.2498 14.8948L20.5298 17.2249C21.4098 18.8249 20.2498 20.7749 18.4298 20.7749Z" fill="#BB2734"/>
<path opacity="0.4" d="M27 21.2744C27 24.8644 24.09 27.7744 20.5 27.7744C16.91 27.7744 14 24.8644 14 21.2744C14 21.1044 14.01 20.9444 14.02 20.7744H18.43C20.25 20.7744 21.41 18.8244 20.53 17.2244L19.25 14.8944C19.65 14.8144 20.07 14.7744 20.5 14.7744C24.09 14.7744 27 17.6844 27 21.2744Z" fill="#BB2734"/>
</svg>
