<svg width="34" height="35" viewBox="0 0 34 35" fill="none" xmlns="http://www.w3.org/2000/svg">
<rect y="0.774414" width="34" height="34" rx="5" fill="#F0F1F3"/>
<path opacity="0.4" d="M21.7998 7.77441H11.2098C8.88977 7.77441 7.00977 9.65441 7.00977 11.9644V18.1444V18.3344C7.00977 20.6544 8.88977 22.5244 11.1998 22.5244H14.7998C15.3498 22.5244 15.7998 22.9744 15.7998 23.5244V24.3444C15.7998 24.8944 15.3498 25.3444 14.7998 25.3444H12.5498C12.1598 25.3444 11.8398 25.6644 11.8398 26.0544C11.8398 26.4444 12.1598 26.7644 12.5498 26.7644H20.4798C20.8698 26.7644 21.1898 26.4444 21.1898 26.0544C21.1898 25.6644 20.8698 25.3444 20.4798 25.3444H18.2298C17.6798 25.3444 17.2298 24.8944 17.2298 24.3444V23.5244C17.2298 22.9744 17.6798 22.5244 18.2298 22.5244H21.7998C24.1198 22.5244 25.9898 20.6444 25.9898 18.3344V18.1444V11.9644C25.9898 9.65441 24.1098 7.77441 21.7998 7.77441Z" fill="#BB2734"/>
<path d="M24.6402 15.2744H19.3502C17.6202 15.2744 16.9902 15.9044 16.9902 17.6544V25.3844C16.9902 27.1444 17.6102 27.7644 19.3502 27.7644H24.6402C26.3702 27.7644 27.0002 27.1344 27.0002 25.3844V17.6544C27.0002 15.8944 26.3802 15.2744 24.6402 15.2744ZM22.0002 26.0944C21.3902 26.0944 20.9002 25.6044 20.9002 24.9944C20.9002 24.3844 21.3902 23.8944 22.0002 23.8944C22.6102 23.8944 23.1002 24.3844 23.1002 24.9944C23.1002 25.6044 22.6102 26.0944 22.0002 26.0944Z" fill="#BB2734"/>
<path opacity="0.4" d="M23.0999 24.9945C23.0999 25.6045 22.6099 26.0945 21.9999 26.0945C21.3899 26.0945 20.8999 25.6045 20.8999 24.9945C20.8999 24.3845 21.3899 23.8945 21.9999 23.8945C22.6099 23.8945 23.0999 24.3945 23.0999 24.9945Z" fill="#BB2734"/>
</svg>
