<svg width="34" height="35" viewBox="0 0 34 35" fill="none" xmlns="http://www.w3.org/2000/svg">
<rect y="0.774414" width="34" height="34" rx="5" fill="#F0F1F3"/>
<path opacity="0.4" d="M25.4098 12.7348V15.5748L12.3998 25.1148L9.76984 23.1448C9.11984 22.6548 8.58984 21.6048 8.58984 20.7948V12.7348C8.58984 11.6148 9.44984 10.3748 10.4998 9.98484L15.9698 7.93484C16.5398 7.72484 17.4598 7.72484 18.0298 7.93484L23.4998 9.98484C24.5498 10.3748 25.4098 11.6148 25.4098 12.7348Z" fill="#BB2734"/>
<path d="M25.4098 16.9443V20.7943C25.4098 21.6043 24.8798 22.6543 24.2298 23.1443L18.7598 27.2343C18.2798 27.5943 17.6398 27.7743 16.9998 27.7743C16.3598 27.7743 15.7198 27.5943 15.2398 27.2343L13.3198 25.8043L25.4098 16.9443Z" fill="#BB2734"/>
</svg>
