<svg width="167" height="17" viewBox="0 0 167 17" fill="none" xmlns="http://www.w3.org/2000/svg">
<path d="M11.3259 8.49984C11.3259 11.6916 8.7905 14.279 5.66294 14.279C2.53539 14.279 0 11.6916 0 8.49984C0 5.30811 2.53539 2.7207 5.66294 2.7207C8.7905 2.7207 11.3259 5.30811 11.3259 8.49984Z" fill="#BB2734"/>
<path d="M29.08 8.49984C29.08 11.6916 26.5446 14.279 23.417 14.279C20.2895 14.279 17.7541 11.6916 17.7541 8.49984C17.7541 5.30811 20.2895 2.7207 23.417 2.7207C26.5446 2.7207 29.08 5.30811 29.08 8.49984Z" fill="#243036"/>
<path d="M46.8341 8.49984C46.8341 11.6916 44.2987 14.279 41.1711 14.279C38.0436 14.279 35.5082 11.6916 35.5082 8.49984C35.5082 5.30811 38.0436 2.7207 41.1711 2.7207C44.2987 2.7207 46.8341 5.30811 46.8341 8.49984Z" fill="#BB2734"/>
<path d="M59.8223 15.7584V1H63.9161C64.9289 1 65.6983 1.0906 66.2245 1.27181C66.915 1.50671 67.5135 1.93624 68.0198 2.5604C68.5262 3.18456 68.9208 3.97315 69.2036 4.92617C69.4864 5.87248 69.6278 6.99664 69.6278 8.29866C69.6278 9.9698 69.3877 11.3893 68.9077 12.557C68.4276 13.7181 67.8094 14.5436 67.0531 15.0336C66.3034 15.5168 65.3202 15.7584 64.1036 15.7584H59.8223ZM61.3908 14.0168H63.9161C64.9355 14.0168 65.7082 13.849 66.2343 13.5134C66.7604 13.1711 67.1649 12.6242 67.4477 11.8725C67.8225 10.8725 68.01 9.6745 68.01 8.27852C68.01 6.78188 67.8094 5.60738 67.4082 4.75503C67.0136 3.89597 66.504 3.32215 65.8792 3.03356C65.4583 2.83893 64.7908 2.74161 63.8767 2.74161H61.3908V14.0168Z" fill="#BB2734"/>
<path d="M82.9144 3.08389V1H84.3645V3.08389H82.9144ZM82.9144 15.7584V5.06711H84.3645V15.7584H82.9144Z" fill="#BB2734"/>
<path d="M101.173 15.7584V2.74161H97.2663V1H106.667V2.74161H102.741V15.7584H101.173Z" fill="#BB2734"/>
<path d="M123.397 12.3154L124.896 12.547C124.646 13.6879 124.193 14.5503 123.535 15.1342C122.884 15.7114 122.075 16 121.108 16C119.892 16 118.905 15.5302 118.149 14.5906C117.399 13.6443 117.024 12.2819 117.024 10.5034C117.024 8.65772 117.402 7.25168 118.159 6.28523C118.921 5.31208 119.885 4.8255 121.049 4.8255C122.16 4.8255 123.088 5.30201 123.831 6.25503C124.574 7.20805 124.946 8.58725 124.946 10.3926L124.936 10.8758H118.524C118.583 12.0772 118.856 12.9832 119.342 13.594C119.829 14.2047 120.421 14.5101 121.118 14.5101C122.21 14.5101 122.969 13.7785 123.397 12.3154ZM118.612 9.38591H123.407C123.341 8.45973 123.147 7.76846 122.825 7.31208C122.358 6.64765 121.763 6.31544 121.039 6.31544C120.388 6.31544 119.832 6.59396 119.372 7.15101C118.912 7.70134 118.658 8.44631 118.612 9.38591Z" fill="#BB2734"/>
<path d="M138.163 15.7584V1H139.732V14.0168H145.571V15.7584H138.163Z" fill="#BB2734"/>
<path d="M164.451 12.3154L165.951 12.547C165.701 13.6879 165.247 14.5503 164.589 15.1342C163.938 15.7114 163.129 16 162.163 16C160.946 16 159.96 15.5302 159.203 14.5906C158.454 13.6443 158.079 12.2819 158.079 10.5034C158.079 8.65772 158.457 7.25168 159.213 6.28523C159.976 5.31208 160.939 4.8255 162.104 4.8255C163.215 4.8255 164.142 5.30201 164.885 6.25503C165.629 7.20805 166 8.58725 166 10.3926L165.99 10.8758H159.578C159.637 12.0772 159.91 12.9832 160.397 13.594C160.884 14.2047 161.475 14.5101 162.173 14.5101C163.264 14.5101 164.024 13.7785 164.451 12.3154ZM159.667 9.38591H164.461C164.395 8.45973 164.201 7.76846 163.879 7.31208C163.412 6.64765 162.817 6.31544 162.094 6.31544C161.443 6.31544 160.887 6.59396 160.427 7.15101C159.966 7.70134 159.713 8.44631 159.667 9.38591Z" fill="#BB2734"/>
<path d="M59.8223 15.7584V1H63.9161C64.9289 1 65.6983 1.0906 66.2245 1.27181C66.915 1.50671 67.5135 1.93624 68.0198 2.5604C68.5262 3.18456 68.9208 3.97315 69.2036 4.92617C69.4864 5.87248 69.6278 6.99664 69.6278 8.29866C69.6278 9.9698 69.3877 11.3893 68.9077 12.557C68.4276 13.7181 67.8094 14.5436 67.0531 15.0336C66.3034 15.5168 65.3202 15.7584 64.1036 15.7584H59.8223ZM61.3908 14.0168H63.9161C64.9355 14.0168 65.7082 13.849 66.2343 13.5134C66.7604 13.1711 67.1649 12.6242 67.4477 11.8725C67.8225 10.8725 68.01 9.6745 68.01 8.27852C68.01 6.78188 67.8094 5.60738 67.4082 4.75503C67.0136 3.89597 66.504 3.32215 65.8792 3.03356C65.4583 2.83893 64.7908 2.74161 63.8767 2.74161H61.3908V14.0168Z" stroke="#BB2734" stroke-width="0.5"/>
<path d="M82.9144 3.08389V1H84.3645V3.08389H82.9144ZM82.9144 15.7584V5.06711H84.3645V15.7584H82.9144Z" stroke="#BB2734" stroke-width="0.5"/>
<path d="M101.173 15.7584V2.74161H97.2663V1H106.667V2.74161H102.741V15.7584H101.173Z" stroke="#BB2734" stroke-width="0.5"/>
<path d="M123.397 12.3154L124.896 12.547C124.646 13.6879 124.193 14.5503 123.535 15.1342C122.884 15.7114 122.075 16 121.108 16C119.892 16 118.905 15.5302 118.149 14.5906C117.399 13.6443 117.024 12.2819 117.024 10.5034C117.024 8.65772 117.402 7.25168 118.159 6.28523C118.921 5.31208 119.885 4.8255 121.049 4.8255C122.16 4.8255 123.088 5.30201 123.831 6.25503C124.574 7.20805 124.946 8.58725 124.946 10.3926L124.936 10.8758H118.524C118.583 12.0772 118.856 12.9832 119.342 13.594C119.829 14.2047 120.421 14.5101 121.118 14.5101C122.21 14.5101 122.969 13.7785 123.397 12.3154ZM118.612 9.38591H123.407C123.341 8.45973 123.147 7.76846 122.825 7.31208C122.358 6.64765 121.763 6.31544 121.039 6.31544C120.388 6.31544 119.832 6.59396 119.372 7.15101C118.912 7.70134 118.658 8.44631 118.612 9.38591Z" stroke="#BB2734" stroke-width="0.5"/>
<path d="M138.163 15.7584V1H139.732V14.0168H145.571V15.7584H138.163Z" stroke="#BB2734" stroke-width="0.5"/>
<path d="M164.451 12.3154L165.951 12.547C165.701 13.6879 165.247 14.5503 164.589 15.1342C163.938 15.7114 163.129 16 162.163 16C160.946 16 159.96 15.5302 159.203 14.5906C158.454 13.6443 158.079 12.2819 158.079 10.5034C158.079 8.65772 158.457 7.25168 159.213 6.28523C159.976 5.31208 160.939 4.8255 162.104 4.8255C163.215 4.8255 164.142 5.30201 164.885 6.25503C165.629 7.20805 166 8.58725 166 10.3926L165.99 10.8758H159.578C159.637 12.0772 159.91 12.9832 160.397 13.594C160.884 14.2047 161.475 14.5101 162.173 14.5101C163.264 14.5101 164.024 13.7785 164.451 12.3154ZM159.667 9.38591H164.461C164.395 8.45973 164.201 7.76846 163.879 7.31208C163.412 6.64765 162.817 6.31544 162.094 6.31544C161.443 6.31544 160.887 6.59396 160.427 7.15101C159.966 7.70134 159.713 8.44631 159.667 9.38591Z" stroke="#BB2734" stroke-width="0.5"/>
</svg>
