<svg width="47" height="12" viewBox="0 0 47 12" fill="none" xmlns="http://www.w3.org/2000/svg">
<path d="M11.3259 5.99984C11.3259 9.19156 8.7905 11.779 5.66294 11.779C2.53539 11.779 0 9.19156 0 5.99984C0 2.80811 2.53539 0.220703 5.66294 0.220703C8.7905 0.220703 11.3259 2.80811 11.3259 5.99984Z" fill="#BB2734"/>
<path d="M29.08 5.99984C29.08 9.19156 26.5446 11.779 23.417 11.779C20.2895 11.779 17.7541 9.19156 17.7541 5.99984C17.7541 2.80811 20.2895 0.220703 23.417 0.220703C26.5446 0.220703 29.08 2.80811 29.08 5.99984Z" fill="#243036"/>
<path d="M46.8341 5.99984C46.8341 9.19156 44.2987 11.779 41.1711 11.779C38.0436 11.779 35.5082 9.19156 35.5082 5.99984C35.5082 2.80811 38.0436 0.220703 41.1711 0.220703C44.2987 0.220703 46.8341 2.80811 46.8341 5.99984Z" fill="#BB2734"/>
</svg>
