<svg width="62" height="11" viewBox="0 0 62 11" fill="none" xmlns="http://www.w3.org/2000/svg">
<path d="M6.21821 3.72798L5.35886 2.23206C5.1993 1.95431 4.79906 1.95298 4.63765 2.22967L3.73084 3.7842C3.61074 3.9901 3.4082 4.13471 3.17446 4.18146L1.93541 4.42927C1.6145 4.49345 1.48946 4.88557 1.71396 5.12368L2.61014 6.07417C2.80178 6.27742 2.87883 6.56317 2.81535 6.83521L2.40971 8.57366C2.32633 8.93103 2.7122 9.21388 3.0279 9.0268L4.57549 8.10971C4.83744 7.95447 5.1632 7.95447 5.42516 8.10971L6.97275 9.0268C7.28844 9.21388 7.67432 8.93103 7.59093 8.57366L7.18174 6.81999C7.12023 6.55637 7.1906 6.27931 7.37043 6.07699L8.26772 5.06755C8.48151 4.82704 8.35356 4.44527 8.03801 4.38216L6.77737 4.13003C6.54173 4.0829 6.33791 3.93635 6.21821 3.72798Z" fill="#BB2734"/>
<path d="M19.2182 3.72798L18.3589 2.23206C18.1993 1.95431 17.7991 1.95298 17.6377 2.22967L16.7308 3.7842C16.6107 3.9901 16.4082 4.13471 16.1745 4.18146L14.9354 4.42927C14.6145 4.49345 14.4895 4.88557 14.714 5.12368L15.6101 6.07417C15.8018 6.27742 15.8788 6.56317 15.8154 6.83521L15.4097 8.57366C15.3263 8.93103 15.7122 9.21388 16.0279 9.0268L17.5755 8.10971C17.8374 7.95447 18.1632 7.95447 18.4252 8.10971L19.9727 9.0268C20.2884 9.21388 20.6743 8.93103 20.5909 8.57366L20.1817 6.81999C20.1202 6.55637 20.1906 6.27931 20.3704 6.07699L21.2677 5.06755C21.4815 4.82704 21.3536 4.44527 21.038 4.38216L19.7774 4.13003C19.5417 4.0829 19.3379 3.93635 19.2182 3.72798Z" fill="#BB2734"/>
<path d="M32.2182 3.72798L31.3589 2.23206C31.1993 1.95431 30.7991 1.95298 30.6377 2.22967L29.7308 3.7842C29.6107 3.9901 29.4082 4.13471 29.1745 4.18146L27.9354 4.42927C27.6145 4.49345 27.4895 4.88557 27.714 5.12368L28.6101 6.07417C28.8018 6.27742 28.8788 6.56317 28.8154 6.83521L28.4097 8.57366C28.3263 8.93103 28.7122 9.21388 29.0279 9.0268L30.5755 8.10971C30.8374 7.95447 31.1632 7.95447 31.4252 8.10971L32.9727 9.0268C33.2884 9.21388 33.6743 8.93103 33.5909 8.57366L33.1817 6.81999C33.1202 6.55637 33.1906 6.27931 33.3704 6.07699L34.2677 5.06755C34.4815 4.82704 34.3536 4.44527 34.038 4.38216L32.7774 4.13003C32.5417 4.0829 32.3379 3.93635 32.2182 3.72798Z" fill="#BB2734"/>
<path d="M45.2182 3.72798L44.3589 2.23206C44.1993 1.95431 43.7991 1.95298 43.6377 2.22967L42.7308 3.7842C42.6107 3.9901 42.4082 4.13471 42.1745 4.18146L40.9354 4.42927C40.6145 4.49345 40.4895 4.88557 40.714 5.12368L41.6101 6.07417C41.8018 6.27742 41.8788 6.56317 41.8154 6.83521L41.4097 8.57366C41.3263 8.93103 41.7122 9.21388 42.0279 9.0268L43.5755 8.10971C43.8374 7.95447 44.1632 7.95447 44.4252 8.10971L45.9727 9.0268C46.2884 9.21388 46.6743 8.93103 46.5909 8.57366L46.1817 6.81999C46.1202 6.55637 46.1906 6.27931 46.3704 6.07699L47.2677 5.06755C47.4815 4.82704 47.3536 4.44527 47.038 4.38216L45.7774 4.13003C45.5417 4.0829 45.3379 3.93635 45.2182 3.72798Z" fill="#BB2734"/>
<path d="M58.2182 3.72798L57.3589 2.23206C57.1993 1.95431 56.7991 1.95298 56.6377 2.22967L55.7308 3.7842C55.6107 3.9901 55.4082 4.13471 55.1745 4.18146L53.9354 4.42927C53.6145 4.49345 53.4895 4.88557 53.714 5.12368L54.6101 6.07417C54.8018 6.27742 54.8788 6.56317 54.8154 6.83521L54.4097 8.57366C54.3263 8.93103 54.7122 9.21388 55.0279 9.0268L56.5755 8.10971C56.8374 7.95447 57.1632 7.95447 57.4252 8.10971L58.9727 9.0268C59.2884 9.21388 59.6743 8.93103 59.5909 8.57366L59.1817 6.81999C59.1202 6.55637 59.1906 6.27931 59.3704 6.07699L60.2677 5.06755C60.4815 4.82704 60.3536 4.44527 60.038 4.38216L58.7774 4.13003C58.5417 4.0829 58.3379 3.93635 58.2182 3.72798Z" fill="#BB2734"/>
</svg>
