<svg width="13" height="3" viewBox="0 0 13 3" fill="none" xmlns="http://www.w3.org/2000/svg">
<path d="M3.40196 1.5C3.40196 0.671573 2.75233 0 1.95098 0C1.14963 0 0.5 0.671573 0.5 1.5C0.5 2.32843 1.14963 3 1.95098 3C2.75233 3 3.40196 2.32843 3.40196 1.5Z" fill="#BB2734"/>
<path d="M7.95098 1.5C7.95098 0.671573 7.30135 0 6.5 0C5.69865 0 5.04902 0.671573 5.04902 1.5C5.04902 2.32843 5.69865 3 6.5 3C7.30135 3 7.95098 2.32843 7.95098 1.5Z" fill="#243036"/>
<path d="M12.5 1.5C12.5 0.671573 11.8504 0 11.049 0C10.2477 0 9.59804 0.671573 9.59804 1.5C9.59804 2.32843 10.2477 3 11.049 3C11.8504 3 12.5 2.32843 12.5 1.5Z" fill="#BB2734"/>
</svg>
