<svg width="15" height="16" viewBox="0 0 15 16" fill="none" xmlns="http://www.w3.org/2000/svg">
<path fill-rule="evenodd" clip-rule="evenodd" d="M15 8.2749C15 12.417 11.6421 15.7749 7.5 15.7749C3.35786 15.7749 0 12.417 0 8.2749C0 4.13277 3.35786 0.774902 7.5 0.774902C11.6421 0.774902 15 4.13277 15 8.2749ZM7.76877 6.31173C7.03928 6.61515 5.58134 7.24315 3.39493 8.19573C3.0399 8.33692 2.85391 8.47504 2.83698 8.61009C2.80837 8.83834 3.09419 8.92821 3.48342 9.0506C3.53636 9.06725 3.59122 9.0845 3.64746 9.10278C4.0304 9.22726 4.54552 9.37289 4.81331 9.37867C5.05621 9.38392 5.32733 9.28378 5.62665 9.07824C7.66947 7.69928 8.72399 7.00228 8.79019 6.98726C8.8369 6.97666 8.90162 6.96333 8.94548 7.00231C8.98933 7.04128 8.98502 7.1151 8.98038 7.1349C8.95206 7.25561 7.83008 8.29871 7.24945 8.83851C7.06844 9.0068 6.94005 9.12616 6.9138 9.15342C6.855 9.21449 6.79508 9.27226 6.73749 9.32778C6.38173 9.67073 6.11494 9.92792 6.75226 10.3479C7.05853 10.5497 7.3036 10.7166 7.5481 10.8831C7.81511 11.065 8.08143 11.2463 8.42601 11.4722C8.5138 11.5297 8.59764 11.5895 8.67931 11.6477C8.99005 11.8693 9.26922 12.0683 9.61412 12.0365C9.81453 12.0181 10.0215 11.8297 10.1267 11.2676C10.3751 9.93937 10.8635 7.06144 10.9764 5.87551C10.9863 5.77161 10.9738 5.63863 10.9638 5.58026C10.9539 5.52189 10.933 5.43872 10.8571 5.37715C10.7672 5.30424 10.6285 5.28886 10.5665 5.28995C10.2844 5.29492 9.8516 5.44541 7.76877 6.31173Z" fill="#009FE3"/>
</svg>
